<svg xmlns="http://www.w3.org/2000/svg" xml:space="preserve" width="1500" height="66" data-id="lg_Vu0OeRZMjb9prLjDKQ" data-version="1" viewBox="0 0 1500 66"><g data-padding="20"><g transform="translate(14.498 1.387)scale(.95798)"><rect width="474.073" height="65.54" x="125.14" y="-400.065" fill="none" rx="0" ry="0" transform="translate(443.46 400.36)"/><path fill="#272727" d="m584.866 41.095.06-6.03.11-9.86v-4.29q0-1.51.15-3.54.14-2.03.03-2.5-.23-.34-4.47-.29l-8.12.06q-.17 0-.81.06t-1.07.03q-.44-.03-.9-.15-1.1-.17-1.1-1.24 0-1.08.17-1.69.17-.6.49-.89t.87-.35 1.34-.03q.78.03 2.32-.09 1.53-.11 8.61-.11l11.66.05 10.96-.05 2.44-.06h.87q1.1 0 1.39.69.06.24.06.64 0 2.03-.58 2.5-.41.4-2.9.4h-2.73q-2.73 0-4.84.15-2.12.14-6.64.14-.87 0-1.05.32-.17.32-.17 1.31l-.06 10.49v8.47q0 7.77-.15 10.06-.14 2.3-.17 2.96-.03.67-.06.81l-.11.56q-.09.4-.24.49-.14.09-.37.29t-.61.23-.9.09-1.51.06q-.98 0-1.27-.24-.29-.23-.44-1.24-.14-1.02-.17-2.96t-.06-3.08q-.03-1.13-.03-2.17m27.6 7.13.29-20.24V9.895q0-.99.58-1.45.58-.47 2.78-.47 2.21 0 2.21 1.16v1.63q-.12 2.9-.12 5.74t.03 6.58.03 4.32q2.61-1.27 5.01-1.83 2.41-.55 3.63-.55 5.63 0 7.66 2.9t2.03 9.86-.09 8.09q-.09 1.14-.09 2.01v1.16q0 1.16-.52 1.39-1.28.46-2.47.46-1.18 0-1.65-.11-.46-.12-.64-.58-.17-.47-.2-.7t0-1.16.03-1.28l.06-10.96q0-3.88-1.19-5.48-1.19-1.59-5.13-1.59-6.27 0-6.27 2.03l-.06 4.98q0 8.24-.08 10.15-.09 1.92-.06 2.47t-.03.98q-.06.44-.35.67-.52.58-2.14.58-1.63 0-2.15-.11-1.1-.29-1.1-2.56m50-11.76-13.28.06q-2.14 0-2.49.35-.29.4-.29 1.33 0 4.52 2.58 6.93t5.89 2.41q3.3 0 5.16-.87.06 0 1.16-.76 1.1-.75 1.53-.75.44 0 .67.35t.23.69q0 2.21-3.24 3.74-3.25 1.54-7.57 1.54t-8.24-3.48q-3.91-3.48-3.91-9.39 0-5.92 3.68-9.75t9.89-3.83q4.52 0 7.31 2.67 2.95 2.79 2.95 6.73 0 2.03-2.03 2.03m-15.08-2.84q11.02 0 12.76-.12-.17-2.32-1.77-3.83-1.59-1.5-4.03-1.5-2.43 0-4.55 1.71t-2.41 3.74m34.22 14.72v-28.88l.06-4.47q0-2.96.61-3.89.61-.92 2.76-.92 9.22 0 13.16 1.56 8.35 3.25 8.35 11.54 0 1.8-.72 4.06-.73 2.27-1.54 3.54-1.74 2.61-4.67 4.58-2.93 1.98-6.7 1.98-1.68 0-1.68-1.4 0-.75.12-1.45 9.68-2.72 9.68-10.32 0-9.57-12.76-9.57-.58 0-.75.38-.17.37-.17 1.3v6.9l.17 22.51q0 3.3-.75 4.17-.76.87-2.61.87-1.86 0-2.21-.55t-.35-1.94m30.05-3.7.4-12.88q.06-.46.06-1.62t.09-1.74.26-1.39q.35-1.45 1.68-1.45 2.9 0 2.9 1.27 0 .99.06 1.39.35 0 3.36-1.56 3.02-1.57 5.17-1.57.87 0 1.18.44.32.43.32 2 0 1.56-.4 2.38-.35.05-1.25.17t-1.33.17q-.44.06-1.25.21-.81.14-1.28.23-.46.09-1.13.23-.66.15-1.1.32-.43.17-.9.35-.93.35-1.27.93v3.77l.11 9.86v1.82q0 .73-.03 1.19-.03.47-.26.93-.46.75-2.41.75-1.94 0-2.29-.23-.69-.46-.69-5.97m19.83-27.21q-.58-.18-1.36-1.19-.78-1.02-.75-1.92t1.16-1.85q1.13-.96 2.93-.96 2.66 0 2.66 2.55 0 1.8-1.13 2.67t-2.03.87-1.48-.17m3.6 12.41v8.35l.17 11.48q0 .7-.17.87-.58.29-2.44.29-1.85 0-2.29-.26-.43-.26-.43-1.59l-.23-10.62q0-5.56.05-7.07l.18-3.42q0-1.63.52-1.92t2-.29 2.52.18q.12 2.55.12 4m8.82-4.24 2.49.06q.06.06.52 1.97.47-.17 2.44-.98 4-1.57 6.26-1.57 3.77 0 6.03 3.08l.58-.41q.64-.41.82-.52l.69-.41q.58-.35.87-.46.29-.12.9-.41t1.04-.4q.44-.12 1.02-.29 1.1-.24 2.49-.24 6.09 0 7.78 5.8.46 1.28.58 6.15v10.79q0 1.97-.67 2.52t-2.5.55q-1.82 0-2.2-.26t-.38-1.3l.18-3.48v-8.47q0-1.28-.03-2.2-.03-.93-.29-2.32-.26-1.4-.78-1.98-1.45-1.62-4.3-1.62-5.39 0-5.39 3.54l.17 5.28v7.88q0 2.56-.46 3.37-.23.4-1.04.4-3.25 0-3.77-.81-.41-.58-.32-1.8.08-1.21.08-1.39l.29-10.26q0-3.31-1.1-4.53t-3.42-1.22q-5.57 0-5.57 2.15l.12 4.76-.12 10.03q0 .35.03 1.07.03.73-.03.96l-.06.7q-.05.46-.17.63-.7.64-1.16.7-1.28.17-2 .17-.73 0-.99-.05-.26-.06-.43-.21-.18-.14-.29-.29-.12-.14-.21-.46-.08-.32-.11-.58t-.03-.78v-2.96l.23-12.07.12-4.81.11-1.16q0-.7.32-1.13.32-.44.5-.49.69-.24 1.16-.24m65.65 12.08q0 5.97-4.09 9.89-4.09 3.91-9.8 3.91t-9.45-3.59q-3.74-3.6-3.74-9.72t3.97-9.63 10.93-3.51q3.89 0 7.72 2.44 1.97 1.33 3.21 3.97 1.25 2.64 1.25 6.24m-13.11 9.51q3.66 0 5.89-2.64t2.23-6.52q0-3.89-1.94-6.44t-5.68-2.55-6.27 2.32q-2.52 2.32-2.52 6.61t2.32 6.75q2.32 2.47 5.97 2.47m24.42-13.18-.11 8.36q0 2.37.81 3.62t2.72 1.25q1.92 0 3.25-.35 2.5-.7 2.5.7 0 3.88-7.2 3.88-4.06 0-6.32-3.65-1.1-2.32-1.1-5.51l.12-6.73.11-4.87q0-.81-.23-1.02-.23-.2-.87-.2l-2.26.17q-1.45 0-1.45-.92 0-1.63.37-2.3.38-.66 1.43-.66l2.26.17q.81 0 .81-1.97v-3.6q0-1.5.06-1.74.69-.34 4.58-.34 1.04 0 1.04 1.1l-.17 6.38q.7.06 2.26.06l4.64-.35q.93 0 .93 1.1 0 3.19-3.13 3.19l-3.77-.23q-.93 0-1.16.11-.12 1.05-.12 4.35m14.15-16.58q-.58-.18-1.36-1.19-.78-1.02-.75-1.92t1.16-1.85q1.13-.96 2.93-.96 2.66 0 2.66 2.55 0 1.8-1.13 2.67t-2.03.87-1.48-.17m3.6 12.41v8.35l.17 11.48q0 .7-.17.87-.58.29-2.44.29-1.85 0-2.29-.26-.43-.26-.43-1.59l-.23-10.62q0-5.56.05-7.07l.18-3.42q0-1.63.52-1.92t2-.29 2.52.18q.12 2.55.12 4m31.49 7.84q0 5.97-4.09 9.89-4.08 3.91-9.8 3.91-5.71 0-9.45-3.59-3.74-3.6-3.74-9.72t3.97-9.63 10.93-3.51q3.89 0 7.72 2.44 1.97 1.33 3.22 3.97 1.24 2.64 1.24 6.24m-13.1 9.51q3.65 0 5.88-2.64 2.24-2.64 2.24-6.52 0-3.89-1.95-6.44-1.94-2.55-5.68-2.55t-6.27 2.32q-2.52 2.32-2.52 6.61t2.32 6.75q2.32 2.47 5.98 2.47m19.77-21.53 2.73-.06q0 .29.35 1.45.35-.11 1.97-.69 3.83-1.34 6.35-1.34t4.44.79q1.91.78 2.96 1.97 1.04 1.19 1.68 3.16.93 3.19.93 8.47l-.29 9.92q0 1.16-.21 1.33-.2.17-1.62.17t-3.28-.23q-.17-1.39-.17-4.87l.06-7.42q0-4.64-1.57-6.99t-5.37-2.35q-3.79 0-5.77 1.1l.12 7.77q.06 5.22.06 8.12l.11 3.42q0 .93-.46 1.19t-1.97.26l-3.02-.11-.23-12.12.23-8.82v-2.09q0-2.03 1.97-2.03m51.62 15.43.06-6.03.12-9.86v-4.29q0-1.51.14-3.54.15-2.03.03-2.5-.23-.34-4.46-.29l-8.12.06q-.18 0-.82.06-.63.06-1.07.03-.43-.03-.9-.15-1.1-.17-1.1-1.24 0-1.08.17-1.69.18-.6.5-.89t.87-.35 1.33-.03 2.32-.09q1.54-.11 8.61-.11l11.66.05 10.96-.05 2.44-.06h.87q1.1 0 1.39.69.06.24.06.64 0 2.03-.58 2.5-.41.4-2.9.4h-2.73q-2.72 0-4.84.15-2.12.14-6.64.14-.87 0-1.04.32-.18.32-.18 1.31l-.06 10.49v8.47q0 7.77-.14 10.06-.15 2.3-.18 2.96-.02.67-.05.81-.03.15-.12.56-.09.4-.23.49-.15.09-.38.29t-.61.23q-.37.03-.9.09-.52.06-1.5.06-.99 0-1.28-.24-.29-.23-.44-1.24-.14-1.02-.17-2.96t-.06-3.08q-.03-1.13-.03-2.17m47.51-4.63-13.29.06q-2.14 0-2.49.35-.29.4-.29 1.33 0 4.52 2.58 6.93t5.89 2.41q3.3 0 5.16-.87.06 0 1.16-.76 1.1-.75 1.54-.75.43 0 .66.35.24.35.24.69 0 2.21-3.25 3.74-3.25 1.54-7.57 1.54t-8.24-3.48q-3.91-3.48-3.91-9.39 0-5.92 3.68-9.75t9.89-3.83q4.52 0 7.31 2.67 2.96 2.79 2.96 6.73 0 2.03-2.03 2.03m-15.08-2.84q11.02 0 12.76-.12-.18-2.32-1.77-3.83-1.6-1.5-4.03-1.5-2.44 0-4.56 1.71-2.11 1.71-2.4 3.74m37.23 17.21q-1.74 0-1.62-1.91 0-.64-.18-.64-.46.18-1.85.99-6.9 4.23-12.12.52-2.38-1.68-2.38-4.64 0-4.47 4.14-6.5 4.15-2.03 10.3-2.03 1.1 0 1.62.06 0-.98.06-1.39 0-3.31-1.83-4.96-1.82-1.65-5.07-1.65-1.57 0-3.36.46-1.8.47-2.32.47-.53 0-.85-.64-.31-.64-.31-1.68 0-1.05 2.58-1.66t4.96-.61q5.62 0 8.55 2.96t2.93 8.64v11.95q0 1.57-.58 1.92-.58.34-2.67.34m-2.14-6.09q.11-1.62.11-3.48 0-1.85-.06-2.08-8 .75-9.74 2.9-.93 1.1-.93 2.55 0 3.07 4.58 3.07 2.32 0 4.15-1.07t1.89-1.89m13.63-19.14 2.49.06q.06.06.52 1.97.47-.17 2.44-.98 4-1.57 6.26-1.57 3.77 0 6.03 3.08l.58-.41q.64-.41.82-.52l.69-.41q.58-.35.87-.46.29-.12.9-.41t1.04-.4q.44-.12 1.02-.29 1.1-.24 2.49-.24 6.09 0 7.78 5.8.46 1.28.58 6.15v10.79q0 1.97-.67 2.52t-2.5.55q-1.82 0-2.2-.26t-.38-1.3l.18-3.48v-8.47q0-1.28-.03-2.2-.03-.93-.29-2.32-.26-1.4-.78-1.98-1.45-1.62-4.3-1.62-5.39 0-5.39 3.54l.17 5.28v7.88q0 2.56-.46 3.37-.23.4-1.04.4-3.25 0-3.77-.81-.41-.58-.32-1.8.08-1.21.08-1.39l.29-10.26q0-3.31-1.1-4.53t-3.42-1.22q-5.57 0-5.57 2.15l.12 4.76-.12 10.03q0 .35.03 1.07.03.73-.03.96l-.06.7q-.05.46-.17.63-.7.64-1.16.7-1.28.17-2 .17-.73 0-.99-.05-.26-.06-.43-.21-.18-.14-.29-.29-.12-.14-.21-.46-.08-.32-.11-.58t-.03-.78v-2.96l.23-12.07.12-4.81.11-1.16q0-.7.32-1.13.32-.44.5-.49.69-.24 1.16-.24"/><path fill="#3d9970" d="M506.466 21.735a33.798 16.348-45 1 0 23.12 23.12 33.798 16.348-45 1 0-23.12-23.12"/><path fill="#ffdc00" d="M501.836 32.725a17 35.145 0 1 0 34 0 17 35.145 0 1 0-34 0"/><path fill="#0074d9" d="M506.986 44.265a16.348 33.798-45 1 0 23.12-23.12 16.348 33.798-45 1 0-23.12 23.12"/></g><path fill="transparent" stroke="transparent" stroke-width=".994" d="M475.18.263h549.64v65.599H475.18z"/></g></svg>